<?xml version="1.0" encoding="UTF-8" standalone="no"?><svg xmlns="http://www.w3.org/2000/svg" xmlns:xlink="http://www.w3.org/1999/xlink" fill="#f1f0ec" height="3440.2" preserveAspectRatio="xMidYMid meet" version="1" viewBox="717.3 379.5 2847.2 3440.2" width="2847.2" zoomAndPan="magnify"><g id="change1_1"><path d="M1916.86,539.31c-59.46,0-107.84,48.38-107.84,107.84S1857.39,755,1916.86,755s107.84-48.38,107.84-107.84 S1976.32,539.31,1916.86,539.31z M1916.86,678c-17.01,0-30.84-13.84-30.84-30.84s13.84-30.84,30.84-30.84s30.84,13.84,30.84,30.84 S1933.86,678,1916.86,678z"/><path d="M3541.8,3360.97l-65.53-38.44v-52.45l65.53-38.44c15.59-9.15,22.72-27.91,17.13-45.1l-33.79-103.98 c-5.59-17.19-22.38-28.18-40.37-26.42l-75.61,7.42l-30.83-42.44l30.42-69.62c7.24-16.57,1.98-35.94-12.65-46.56l-88.45-64.26 c-14.63-10.63-34.67-9.64-48.19,2.36l-56.81,50.44l-49.89-16.21l-16.31-74.2c-3.88-17.66-19.52-30.23-37.6-30.23h-3.12 l-3.53-1790.42c0-0.06,0-0.12,0-0.18c-0.33-50.26-20.15-97.45-55.81-132.87c-35.66-35.42-82.97-54.93-133.23-54.93h-389.3V654.16 c0-21.26-17.24-38.5-38.5-38.5h-286.54c-8.19-58.75-35.09-113-77.77-155.68c-51.87-51.87-120.83-80.43-194.18-80.43 s-142.31,28.56-194.18,80.43c-42.68,42.68-69.58,96.93-77.77,155.68h-286.54c-21.26,0-38.5,17.24-38.5,38.5v140.27H906.48 c-50.59,0-98.12,19.73-133.85,55.54c-35.72,35.82-55.33,83.4-55.2,133.99l6.22,2416.48c0.13,50.4,19.85,97.77,55.54,133.36 c35.69,35.59,83.1,55.2,133.5,55.2h1789.69l-22.77,52.11c-7.24,16.57-1.98,35.94,12.65,46.56l88.45,64.26 c14.63,10.63,34.67,9.65,48.19-2.36l56.81-50.44l49.89,16.21l16.31,74.2c3.88,17.66,19.52,30.23,37.6,30.23h109.33 c18.08,0,33.72-12.58,37.6-30.23l16.31-74.2l49.89-16.21l56.81,50.44c13.52,12,33.57,12.98,48.19,2.36l88.45-64.26 c14.62-10.63,19.89-30,12.65-46.56l-30.42-69.62l30.83-42.44l75.61,7.42c18,1.76,34.79-9.23,40.37-26.42l33.79-103.98 C3564.52,3388.88,3557.39,3370.12,3541.8,3360.97z M1396.86,692.66h283.88c21.26,0,38.5-17.24,38.5-38.5 c0-108.96,88.65-197.61,197.61-197.61c108.96,0,197.61,88.65,197.61,197.61c0,21.26,17.24,38.5,38.5,38.5h283.88v304.41H1396.86 V692.66z M800.65,3400.24l-6.22-2416.48c-0.08-29.98,11.54-58.19,32.71-79.41c21.17-21.23,49.35-32.92,79.33-32.92h413.38v164.15 c0,21.26,17.24,38.5,38.5,38.5h1116.99c21.26,0,38.5-17.24,38.5-38.5V871.42h389.3c29.79,0,57.83,11.56,78.97,32.56 c21.12,20.98,32.86,48.93,33.08,78.69l3.53,1790.15h-29.21c-18.08,0-33.72,12.58-37.6,30.23l-16.31,74.2l-49.89,16.21l-56.81-50.44 c-13.52-12-33.57-12.99-48.19-2.36l-88.45,64.26c-14.62,10.63-19.89,30-12.65,46.56l30.42,69.62l-30.83,42.44l-75.61-7.42 c-18-1.76-34.79,9.23-40.37,26.42l-33.79,103.98c-5.59,17.19,1.54,35.96,17.13,45.1l65.53,38.44v52.45l-65.53,38.44 c-15.59,9.15-22.72,27.91-17.13,45.1l33.79,103.98c0.21,0.66,0.45,1.3,0.7,1.94H912.7C851.07,3512,800.81,3461.86,800.65,3400.24z M3418.29,3377.78l57.85,33.94l-14.65,45.1l-66.75-6.55c-13.6-1.33-26.88,4.64-34.91,15.69l-56.75,78.11 c-8.03,11.05-9.6,25.53-4.13,38.04l26.85,61.46l-38.36,27.87l-50.15-44.53c-10.21-9.07-24.47-12.05-37.46-7.83l-91.83,29.84 c-12.99,4.22-22.77,15.01-25.71,28.35l-14.4,65.5h-47.42l-14.4-65.5c-2.93-13.34-12.71-24.13-25.71-28.35l-91.83-29.84 c-12.99-4.22-27.25-1.24-37.46,7.83l-50.15,44.53l-38.36-27.87l26.85-61.46c5.47-12.52,3.9-26.99-4.13-38.04l-56.75-78.11 c-8.03-11.05-21.31-17.02-34.91-15.69l-66.75,6.55l-14.65-45.1l57.85-33.94c11.78-6.91,19.02-19.55,19.02-33.21v-96.55 c0-13.66-7.24-26.3-19.02-33.21l-57.85-33.94l14.65-45.1l66.75,6.55c13.6,1.33,26.88-4.64,34.91-15.69l56.75-78.11 c8.03-11.05,9.6-25.53,4.13-38.04l-26.85-61.46l38.36-27.87l50.15,44.53c10.21,9.07,24.47,12.05,37.46,7.83l91.83-29.84 c12.99-4.22,22.77-15.01,25.71-28.35l14.4-65.5h36.83c0.02,0,0.05,0,0.08,0h10.51l14.4,65.5c2.93,13.34,12.71,24.13,25.71,28.35 l91.83,29.84c12.99,4.22,27.24,1.24,37.46-7.83l50.15-44.53l38.36,27.87l-26.85,61.46c-5.47,12.52-3.9,26.99,4.13,38.04 l56.75,78.11c8.03,11.05,21.3,17.01,34.91,15.69l66.75-6.55l14.65,45.1l-57.85,33.94c-11.78,6.91-19.02,19.55-19.02,33.21v96.55 C3399.27,3358.23,3406.51,3370.87,3418.29,3377.78z"/><path d="M3044.18,3048.51c-66.19,0-128.41,25.77-175.21,72.57s-72.57,109.02-72.57,175.21s25.77,128.41,72.57,175.21 s109.02,72.57,175.21,72.57s128.41-25.77,175.21-72.57c46.8-46.8,72.57-109.02,72.57-175.21s-25.77-128.41-72.57-175.21 C3172.59,3074.29,3110.37,3048.51,3044.18,3048.51z M3044.18,3467.08c-94.17,0-170.78-76.61-170.78-170.78 c0-94.17,76.61-170.78,170.78-170.78c94.17,0,170.78,76.61,170.78,170.78C3214.97,3390.47,3138.35,3467.08,3044.18,3467.08z"/><path d="M2537.92,1589.31c91.78,0,166.44-74.67,166.44-166.44s-74.67-166.44-166.44-166.44c-91.78,0-166.44,74.67-166.44,166.44 S2446.14,1589.31,2537.92,1589.31z M2537.92,1333.42c49.32,0,89.44,40.12,89.44,89.44s-40.12,89.44-89.44,89.44 c-49.32,0-89.44-40.12-89.44-89.44S2488.6,1333.42,2537.92,1333.42z"/><path d="M1314.82,1914.03c7.52,7.52,17.37,11.28,27.22,11.28s19.71-3.76,27.22-11.28l74.42-74.42l74.42,74.42 c7.52,7.52,17.37,11.28,27.22,11.28s19.71-3.76,27.22-11.28c15.04-15.04,15.04-39.41,0-54.45l-74.42-74.42l74.42-74.42 c15.04-15.04,15.04-39.41,0-54.45s-39.41-15.04-54.45,0l-74.42,74.42l-74.42-74.42c-15.04-15.04-39.41-15.04-54.45,0 s-15.04,39.41,0,54.45l74.42,74.42l-74.42,74.42C1299.79,1874.62,1299.79,1899,1314.82,1914.03z"/><path d="M1904.32,2732.24c-15.04-15.04-39.41-15.04-54.45,0l-74.42,74.42l-74.42-74.42c-15.04-15.04-39.41-15.04-54.45,0 s-15.04,39.41,0,54.45l74.42,74.42l-74.42,74.42c-15.04,15.04-15.04,39.41,0,54.45c7.52,7.52,17.37,11.28,27.22,11.28 s19.71-3.76,27.22-11.28l74.42-74.42l74.42,74.42c7.52,7.52,17.37,11.28,27.22,11.28s19.71-3.76,27.22-11.28 c15.04-15.04,15.04-39.41,0-54.45l-74.42-74.42l74.42-74.42C1919.35,2771.65,1919.35,2747.28,1904.32,2732.24z"/><path d="M2528.67,2686.95l-74.42-74.42l74.42-74.42c15.04-15.04,15.04-39.41,0-54.45s-39.41-15.04-54.45,0l-74.42,74.42 l-74.42-74.42c-15.04-15.04-39.41-15.04-54.45,0s-15.04,39.41,0,54.45l74.42,74.42l-74.42,74.42c-15.04,15.04-15.04,39.41,0,54.45 c7.52,7.52,17.37,11.28,27.22,11.28s19.71-3.76,27.22-11.28l74.42-74.42l74.42,74.42c7.52,7.52,17.37,11.28,27.22,11.28 s19.71-3.76,27.22-11.28C2543.7,2726.37,2543.7,2701.99,2528.67,2686.95z"/><path d="M1393.08,2283.87h965.87c58.09,0,112.7-22.62,153.78-63.7c41.08-41.08,63.7-95.69,63.7-153.78v-232.11l69.52,69.52 c7.52,7.52,17.37,11.28,27.22,11.28c9.85,0,19.71-3.76,27.22-11.28c15.04-15.04,15.04-39.41,0-54.45l-135.24-135.24 c-7.22-7.22-17.01-11.28-27.22-11.28s-20,4.06-27.22,11.28l-135.25,135.24c-15.04,15.04-15.04,39.41,0,54.45 c15.04,15.03,39.41,15.04,54.45,0l69.52-69.52v232.11c0,77.46-63.02,140.47-140.47,140.47h-965.87 c-58.09,0-112.7,22.62-153.78,63.7s-63.7,95.69-63.7,153.78v476.13c-73.27,17.42-127.94,83.41-127.94,161.94 c0,91.78,74.67,166.44,166.44,166.44c91.78,0,166.44-74.67,166.44-166.44c0-78.53-54.67-144.52-127.94-161.94v-476.13 C1252.61,2346.88,1315.62,2283.87,1393.08,2283.87z M1303.55,3062.41c0,49.32-40.12,89.44-89.44,89.44 c-49.32,0-89.44-40.12-89.44-89.44s40.12-89.44,89.44-89.44C1263.43,2972.96,1303.55,3013.09,1303.55,3062.41z"/></g></svg>