<?xml version="1.0" encoding="UTF-8" standalone="no"?><svg xmlns="http://www.w3.org/2000/svg" xmlns:xlink="http://www.w3.org/1999/xlink" fill="#f1f0ec" height="76.1" preserveAspectRatio="xMidYMid meet" version="1" viewBox="-0.2 -0.1 70.4 76.1" width="70.4" zoomAndPan="magnify"><g data-name="26" id="change1_1"><path d="M67.206,43.717l-.346.85C65.5,47.9,64.1,51.353,62.8,54.776c-2.011,5.317-2.636,9.751-1.965,13.955a30.35,30.35,0,0,0,.927,3.734c.119.408.239.814.353,1.222a1.353,1.353,0,0,1-.765,1.854,1.567,1.567,0,0,1-.414.1,1.455,1.455,0,0,1-.745.194H29.787a3.132,3.132,0,0,1-2.7-.56,7.459,7.459,0,0,1-1.41-2.786c-.078-.2-.139-.37-.178-.48a20.663,20.663,0,0,1-10.137,1.082,13.322,13.322,0,0,1-5.3-1.54A6.484,6.484,0,0,1,7.347,67.19c-.349-1.864-.08-3.741-.242-5.615A10.825,10.825,0,0,0,4.941,56.12a1.462,1.462,0,0,1-.228-.463l-.175-.227a1.491,1.491,0,0,1-.205-.757V53.516a1.1,1.1,0,0,1,.02-.223,2.844,2.844,0,0,1-.392-1.5,3.21,3.21,0,0,0-1.716-3.08A4.2,4.2,0,0,1,.481,43.007a14.855,14.855,0,0,1,2.083-3.3,14.372,14.372,0,0,0,3.2-6.928c.25-1.6.354-3.253.456-4.851.069-1.1.141-2.232.259-3.343,1.06-9.962,6.108-16.969,15-20.826A50.1,50.1,0,0,1,38.4,0H38.4A31.093,31.093,0,0,1,57.9,6.632,29.953,29.953,0,0,1,68.6,23.656,32.44,32.44,0,0,1,67.206,43.717ZM66.1,25.167C63.709,13.321,54.655,4.661,43.03,3.105A37.709,37.709,0,0,0,19.979,7.614a19.142,19.142,0,0,0-9.927,12.992,40.308,40.308,0,0,0-1,8.127,21.288,21.288,0,0,1-4.665,13.2A11.293,11.293,0,0,0,3.167,43.7c-.69,1.306-.49,2.045.764,2.822a5.293,5.293,0,0,1,2.76,4.718.849.849,0,0,0,.169.629.878.878,0,0,0,.653.159c1.414-.028,2.88-.027,4.36,0a1.612,1.612,0,0,1,1.175.436,1.342,1.342,0,0,1,.33,1.02c-.034.837-.575,1.3-1.523,1.3q-.684,0-1.369.007c-.932.006-1.889.006-2.841-.009a14.809,14.809,0,0,1,2.5,9.032c-.013,1.482-.1,3.2.787,4.478.9,1.3,2.9,1.53,4.344,1.775,6.122,1.037,13.012-.931,15.743-6.941.8-1.755,3.384-.232,2.59,1.514a13.722,13.722,0,0,1-5.568,6.143c.34.721.637,1.425.888,2.055H58.874a26.2,26.2,0,0,1,.458-16.3c1.477-4.326,3.18-8.654,4.827-12.839l.635-1.615A29.184,29.184,0,0,0,66.1,25.167Zm-8.425,1.8a.92.92,0,0,1-.191-1.15,5.445,5.445,0,0,0-3.03-7.34.989.989,0,0,1-.74-1.03,5.963,5.963,0,0,0-5.73-5.7,1.354,1.354,0,0,1-.92-.381c-1.439-2.309-3-3.389-4.9-3.309a4.063,4.063,0,0,0-1.539.079c-.171.061-.361.141-.361.141-.159.069-.319.16-.569.3a5.778,5.778,0,0,0-.52.331c-.091.06-.181.12-.27.189l-.02.01-.051.051a7.83,7.83,0,0,0-.87.849c-.01.01-.109.13-.13.151a.555.555,0,0,1-.06.08,6.333,6.333,0,0,0-.889,2.339v.6a1.143,1.143,0,0,1-.23.149,40.513,40.513,0,0,1-3.96,1.451,1.321,1.321,0,0,1-1.031-.12c-.779-.571-1.539-1.22-2.259-1.85l-.471-.4a1.474,1.474,0,0,0-2.279.09c-1.161,1.18-2.361,2.379-3.511,3.53l-.13.119a1.445,1.445,0,0,0-.089,2.19l.659.78c.591.681,1.2,1.39,1.73,2.131a1.478,1.478,0,0,1,.12,1.149,15.548,15.548,0,0,1-.579,1.521c-.18.439-.371.9-.521,1.36-.2.589-.44.78-1,.8-.83.02-1.659.1-2.469.18-.4.031-.791.07-1.19.1a1.5,1.5,0,0,0-1.56,1.681c.01,1.52.01,3.069,0,4.559v.591a1.475,1.475,0,0,0,1.58,1.649c.819.04,1.65.121,2.449.191l.971.089a1.139,1.139,0,0,1,1.2.911,9.96,9.96,0,0,0,1.031,2.44,1.265,1.265,0,0,1-.261,1.82,18.342,18.342,0,0,0-1.44,1.62c-.25.3-.489.6-.75.89a1.464,1.464,0,0,0,.07,2.2c1.231,1.269,2.5,2.53,3.81,3.81a1.41,1.41,0,0,0,2.1.039l3.179-2.659c.36.149.7.3,1.051.439,1.03.431,2.75.841,3.709,1.291a.308.308,0,0,1,.071.05V52a.644.644,0,0,0,.069.139c.651,1.151,2.27,1.411,3.25,1.48a1.594,1.594,0,0,0,1.2-.61,6.8,6.8,0,0,0,4.819-.789,14.218,14.218,0,0,1,2.55-1.141c3.98-1.289,5.94-3.509,6.151-6.97.009-.159.129-.449.629-.889,1.561-1.391,3.25-3.31,2.51-5.9a5.8,5.8,0,0,1,.591-4.34A5.45,5.45,0,0,0,57.67,26.968ZM36.88,37.887c-2.28-1.56-4.71-4.27-4.641-7.38.06-3,2.29-5.67,4.641-7.229Zm-3.491,5.69c-1.48-.789-1.75-.82-3,.32-.59.541-1.2,1.051-1.739,1.511-.191.16-.381.32-.55.469l-2.371-2.069.75-.87c.631-.74,1.22-1.44,1.85-2.12a1.785,1.785,0,0,0,.2-2.211c-.649-1.46-1.27-3.01-1.879-4.74A1.739,1.739,0,0,0,25,32.507c-1.28-.069-2.349-.15-3.42-.289-.26-.04-.65-.321-.659-.44a20.035,20.035,0,0,1-.05-2.06c.01-.22.01-.44.01-.66l1.23-.12c1.01-.1,1.969-.2,2.919-.26a1.736,1.736,0,0,0,1.63-1.37c.61-1.74,1.211-3.26,1.85-4.64a1.847,1.847,0,0,0-.21-2.22c-.64-.72-1.24-1.46-1.83-2.181-.23-.269-.45-.549-.67-.809l2.21-2.21c.26.22.52.43.78.649.69.561,1.39,1.151,2.071,1.75a1.794,1.794,0,0,0,2.31.151c.969-.51,2.619-.971,3.71-1.39v3.7c-4,1.891-7.551,6.191-7.4,10.811.16,4.86,3.891,8.62,7.4,10.229V44.9A30.883,30.883,0,0,1,33.389,43.577Zm21.85-10.109c-1.01,1.1-4.02,1.44-5.03.57a1.308,1.308,0,0,1-.359-.49c-1.111-3.11-3.8-3.911-6.021-4.25a1.758,1.758,0,0,0-1.36.219,1.307,1.307,0,0,0-.47.951c-.129,1.19.79,1.47,1.5,1.58,1.671.25,2.71.719,3.27,1.5a4.519,4.519,0,0,1,.39,3.5c0,.01-.009.02-.009.029a.189.189,0,0,0-.02.091A1.417,1.417,0,0,0,48.159,38.9a1.32,1.32,0,0,0,1.741-.989c.059-.2.129-.391.19-.581l.06-.18c.239.021.48.051.71.071a13.226,13.226,0,0,0,1.75.09,13.447,13.447,0,0,0,1.81-.231c.219-.039.45-.07.68-.109a2.8,2.8,0,0,1-.9,3.51c-.029-.07-.06-.141-.089-.221-.1-.259-.21-.519-.321-.769a1.658,1.658,0,0,0-.919-.981,1.37,1.37,0,0,0-1.081.12,1.351,1.351,0,0,0-.58,2.01l.02.041a13.752,13.752,0,0,1,.641,1.52c.74,2.2-.02,4.47-1.74,5.2-.131-.169-.25-.349-.371-.53a2.481,2.481,0,0,0-.99-1.03,1.19,1.19,0,0,0-.46-.1.936.936,0,0,0-.4.089,2.134,2.134,0,0,0-.9,1.3,1.853,1.853,0,0,1-.089.2.308.308,0,0,0-.05.1,5.156,5.156,0,0,1-2.891,2.77,5.064,5.064,0,0,1-3.92-.49,1.1,1.1,0,0,1-.51-.72c-.04-1-.04-2-.03-3.05,0-.321.01-.65.01-.98.17.03.331.059.49.1.43.079.831.16,1.24.2,2.361.241,4.02-.459,5.1-2.15A1.359,1.359,0,0,0,46,41.048a1.283,1.283,0,0,0-.99-.27,1.454,1.454,0,0,0-.919.729,2.348,2.348,0,0,1-2.591.981A7.535,7.535,0,0,1,40.11,42.1l-.51-.179v-3.37c.359-.07.709-.13,1.05-.191.869-.159,1.7-.309,2.52-.52a1.477,1.477,0,0,0,.98-.69,1.246,1.246,0,0,0,.02-1.02,1.385,1.385,0,0,0-1.98-.9,7.728,7.728,0,0,1-1.681.289l-.18.011a.764.764,0,0,1-.62-.131,1,1,0,0,1-.2-.77c.04-2.49.04-4.919,0-7.219a1.022,1.022,0,0,1,.26-.811.7.7,0,0,1,.581-.139,14.963,14.963,0,0,1,3.129.78c.77.279,1.55.409,2.05-.46a1.334,1.334,0,0,0,.17-1.04,1.74,1.74,0,0,0-.94-.99,7.732,7.732,0,0,0-5.139-1.03v-2.65c.22.019.439.039.649.059a10.744,10.744,0,0,0,1.591.1,2.687,2.687,0,0,0,2.659-1.69A1.667,1.667,0,0,0,44.2,18a1.736,1.736,0,0,0-1.1-.3.639.639,0,0,0-.47.159c-.831.91-1.621.65-2.551.341-.179-.051-.36-.111-.54-.17,0-.47-.01-.951-.01-1.421-.01-1.179-.02-2.289.02-3.429a2.469,2.469,0,0,1,2.13-2.3,2.439,2.439,0,0,1,2.691,1.38,4.545,4.545,0,0,1,.179,1.83c-.04.68.041,1.411.9,1.691a1.388,1.388,0,0,0,1.76-.771,1.074,1.074,0,0,1,.84-.439,3.132,3.132,0,0,1,2.92,3.029,3.194,3.194,0,0,1-3.089,3.371c-1.061.139-1.54.619-1.48,1.47a1.339,1.339,0,0,0,.44.97,1.8,1.8,0,0,0,1.33.32,5.554,5.554,0,0,0,4.21-2.24c.509-.7.9-.631,1.529-.221A2.739,2.739,0,0,1,55,24.627a3.541,3.541,0,0,1-2.879,2.331,1.893,1.893,0,0,0-1.361.61,1.289,1.289,0,0,0-.2,1.009,1.307,1.307,0,0,0,.561.971,1.784,1.784,0,0,0,1.439.14,18.5,18.5,0,0,0,2.031-.7c.27-.111.549-.221.83-.32a2.325,2.325,0,0,1,.909,1.679A4.253,4.253,0,0,1,55.239,33.468Z"/></g></svg>