<?xml version="1.0" encoding="UTF-8" standalone="no"?>
<svg
   fill="#0c5f92"
   height="2065"
   version="1"
   viewBox="0 0 2065 2065"
   width="2065"
   id="svg1"
   sodipodi:docname="logo-only.svg"
   inkscape:version="1.3.2 (091e20e, 2023-11-25, custom)"
   xmlns:inkscape="http://www.inkscape.org/namespaces/inkscape"
   xmlns:sodipodi="http://sodipodi.sourceforge.net/DTD/sodipodi-0.dtd"
   xmlns="http://www.w3.org/2000/svg"
   xmlns:svg="http://www.w3.org/2000/svg">
  <defs
     id="defs1" />
  <sodipodi:namedview
     id="namedview1"
     pagecolor="#ffffff"
     bordercolor="#000000"
     borderopacity="0.25"
     inkscape:showpageshadow="2"
     inkscape:pageopacity="0.0"
     inkscape:pagecheckerboard="0"
     inkscape:deskcolor="#d1d1d1"
     inkscape:zoom="0.18066667"
     inkscape:cx="2247.2325"
     inkscape:cy="2250"
     inkscape:window-width="1920"
     inkscape:window-height="1009"
     inkscape:window-x="1912"
     inkscape:window-y="-8"
     inkscape:window-maximized="1"
     inkscape:current-layer="svg1" />
  <g
     id="g1"
     transform="translate(-1223.2473,-1217.7122)">
    <path
       d="m 22060,32800 c -2683,-124 -5136,-1232 -6996,-3162 -498,-516 -925,-1066 -1321,-1699 -1069,-1710 -1614,-3740 -1545,-5751 23,-647 77,-1125 197,-1734 170,-860 488,-1782 890,-2577 813,-1609 2010,-2964 3495,-3954 998,-666 2066,-1137 3245,-1432 399,-99 908,-190 1330,-236 1114,-121 2224,-67 3295,161 1110,236 2155,647 3145,1237 338,202 837,548 1120,777 150,121 264,161 394,138 50,-8 124,-40 310,-134 385,-192 717,-399 1054,-658 86,-67 182,-140 213,-163 171,-130 412,-105 558,58 63,70 189,362 312,723 404,1185 467,2400 187,3626 -46,203 -43,234 33,412 1044,2444 1109,5186 183,7675 -604,1625 -1622,3081 -2944,4213 -292,251 -598,487 -769,594 -350,220 -801,279 -1215,160 -243,-71 -459,-203 -647,-396 -531,-545 -1075,-1373 -1403,-2133 -29,-66 -67,-138 -84,-160 -678,-850 -1071,-1797 -1182,-2851 -36,-346 -38,-802 -4,-1151 18,-179 -14,-292 -111,-393 -63,-66 -117,-94 -252,-130 -1119,-294 -1856,-1154 -2074,-2418 -46,-266 -33,-367 56,-465 56,-62 134,-106 240,-138 73,-22 90,-23 725,-30 659,-7 707,-9 910,-50 396,-80 636,-266 733,-569 39,-121 47,-181 46,-340 0,-132 -5,-173 -28,-275 -95,-411 -335,-795 -710,-1135 -694,-628 -1576,-1039 -2606,-1214 -344,-58 -471,-71 -725,-70 -822,3 -1710,185 -2492,510 -283,118 -741,344 -750,371 -2,5 1127,1250 2508,2768 1381,1518 2524,2779 2541,2803 105,151 87,366 -42,506 -49,53 -140,101 -219,116 -34,6 -345,10 -835,9 -765,-1 -782,-1 -838,19 -212,76 -324,294 -258,503 16,53 58,116 243,369 123,168 1239,1698 2482,3400 2438,3341 2312,3169 2433,3314 108,130 146,206 146,295 2,170 -120,280 -449,404 -357,135 -746,210 -1280,247 -202,14 -1015,21 -1245,10 z m 6749,-4780 c 115,-58 590,-693 883,-1180 693,-1149 1097,-2418 1198,-3760 17,-226 23,-744 12,-965 -15,-279 -41,-357 -161,-468 -73,-67 -147,-104 -251,-123 -69,-13 -86,-13 -150,0 -114,24 -188,64 -282,153 -376,357 -752,635 -1197,886 l -144,81 7,226 c 11,336 8,1420 -4,1775 -34,999 -98,1834 -215,2783 -25,200 -45,378 -45,395 0,48 43,129 86,166 75,61 180,74 263,31 z m -11194,-205 c 171,-20 332,-49 480,-86 161,-40 343,-97 350,-109 4,-6 -483,-952 -1081,-2103 -598,-1151 -1109,-2135 -1136,-2187 -59,-115 -75,-191 -59,-281 31,-177 162,-311 331,-338 41,-7 318,-11 743,-11 639,0 681,-1 731,-19 193,-68 312,-278 263,-466 -10,-37 -366,-767 -915,-1875 -494,-998 -918,-1852 -941,-1897 l -41,-83 -121,88 c -565,407 -1115,953 -1525,1512 -710,969 -1150,2095 -1283,3285 -34,303 -44,516 -38,833 6,308 15,414 62,660 221,1155 967,2149 2018,2683 461,234 926,365 1457,409 148,12 551,4 705,-15 z m 8788,-975 c 267,-82 477,-474 554,-1030 25,-188 23,-539 -6,-730 -75,-500 -260,-860 -498,-973 -60,-28 -78,-32 -153,-32 -111,0 -174,28 -272,122 -82,80 -128,144 -190,268 -276,549 -276,1448 -1,2000 103,206 230,334 378,381 58,18 114,17 188,-6 z m -201,-10631 c 318,-97 656,-234 981,-397 272,-135 310,-169 310,-277 0,-95 -41,-139 -268,-290 -688,-457 -1473,-724 -2310,-785 -77,-5 -186,-10 -243,-10 -101,0 -104,1 -133,29 -31,31 -38,75 -19,112 6,10 36,32 68,48 31,16 106,59 166,96 498,302 872,756 1080,1309 49,129 70,159 131,187 58,27 88,24 237,-22 z"
       transform="matrix(0.1,0,0,-0.1,0,4500)"
       id="path1" />
  </g>
</svg>
