<?xml version="1.0" encoding="UTF-8" standalone="no"?><svg xmlns="http://www.w3.org/2000/svg" xmlns:xlink="http://www.w3.org/1999/xlink" fill="#000000" height="460" preserveAspectRatio="xMidYMid meet" version="1" viewBox="16.0 26.0 480.0 460.0" width="480" zoomAndPan="magnify"><g><g fill="#f1f0ec" id="change1_1"><path d="M454.999,55.999h-398c-22.607,0-41.001,18.391-41.001,40.999v268.001 c0,22.606,18.394,41.001,41.001,41.001H214.91c-3.335,11.533-13.984,20-26.578,20H187c-16.543,0-30,13.457-30,30.001 c0,16.543,13.457,30,30,30h139c16.543,0,30.001-13.457,30.001-30C356,439.457,342.542,426,325.999,426h-2.334 c-12.593,0-23.242-8.467-26.577-20h157.911C477.606,406,496,387.605,496,364.999V96.998C496,74.39,477.606,55.999,454.999,55.999z M56.999,75.999h398c11.582,0,21.001,9.419,21.001,20.999V326H35.998V96.998C35.998,85.418,45.417,75.999,56.999,75.999z M323.665,446.001h2.334c5.513,0,10,4.487,10,10s-4.487,10-10,10H187c-5.518,0-10-4.487-10-10s4.482-10,10-10h1.333 c23.672,0,43.37-17.349,47.051-40.001h41.229C280.296,428.652,299.993,446.001,323.665,446.001z M454.999,386 c-262.58,0-138.014,0-398,0c-11.582,0-21.001-9.424-21.001-21.001V346H476v18.999C476,376.576,466.581,386,454.999,386z"/><circle cx="446" cy="366" r="10"/><circle cx="416" cy="366" r="10"/><circle cx="135.999" cy="426" r="10"/><circle cx="366" cy="426" r="10"/><circle cx="386" cy="366" r="10"/><circle cx="135.999" cy="246" r="10"/><circle cx="165.999" cy="185.999" r="10"/><circle cx="195.999" cy="125.999" r="10"/><circle cx="225.999" cy="125.999" r="10"/><path d="M352.729,223.88v48.082c0,3.569,1.904,6.87,5,8.657l41.637,24.038c3.091,1.786,6.903,1.786,10,0 L451,280.619c3.096-1.787,5-5.088,5-8.657V223.88c0-3.569-1.904-6.87-5-8.657l-41.636-24.043c-3.097-1.787-6.909-1.787-10,0 l-41.636,24.043C354.633,217.01,352.729,220.311,352.729,223.88z M372.729,229.657l31.637-18.267L436,229.657v36.528 l-31.636,18.268l-31.636-18.268L372.729,229.657L372.729,229.657z"/><path d="M297.728,180.618l41.637,24.039c3.096,1.787,6.903,1.787,10,0L391,180.618 c3.096-1.782,5-5.083,5-8.657V123.88c0-3.572-1.904-6.873-5-8.66l-41.637-24.039c-3.097-1.787-6.909-1.787-10,0l-41.637,24.039 c-3.096,1.787-5,5.088-5,8.66v48.081C292.729,175.535,294.632,178.836,297.728,180.618z M312.728,129.654l31.637-18.264 L376,129.654v36.531l-31.637,18.267l-31.637-18.267L312.728,129.654L312.728,129.654z"/><path d="M232.723,223.88v48.082c0,3.569,1.909,6.87,5,8.657l41.641,24.038c3.091,1.786,6.903,1.786,10,0 L331,280.619c3.096-1.787,5-5.088,5-8.657V223.88c0-3.569-1.904-6.87-5-8.657l-41.636-24.043c-3.097-1.787-6.909-1.787-10,0 l-41.641,24.043C234.632,217.01,232.723,220.311,232.723,223.88z M252.728,229.657l31.635-18.267L316,229.657v36.528 l-31.637,18.268l-31.635-18.268L252.728,229.657L252.728,229.657z"/><path d="M65.998,135.999h100c5.522,0,10-4.478,10-10s-4.478-10-10-10h-100c-5.522,0-10,4.478-10,10 S60.476,135.999,65.998,135.999z"/><path d="M65.998,165.999h160.001c5.522,0,10-4.478,10-10s-4.478-10-10-10H65.998c-5.522,0-10,4.478-10,10 S60.476,165.999,65.998,165.999z"/><path d="M65.998,196h70c5.522,0,10-4.478,10-10s-4.478-10-10-10h-70c-5.522,0-10,4.478-10,10 S60.476,196,65.998,196z"/><path d="M65.998,226h110c5.522,0,10-4.478,10-10s-4.478-10-10-10h-110c-5.522,0-10,4.478-10,10 S60.476,226,65.998,226z"/><path d="M65.998,256h40c5.522,0,10-4.478,10-10s-4.478-10-10-10h-40c-5.522,0-10,4.478-10,10 S60.476,256,65.998,256z"/><path d="M65.998,286h100c5.522,0,10-4.479,10-10s-4.478-10-10-10h-100c-5.522,0-10,4.479-10,10 S60.476,286,65.998,286z"/><path d="M70.998,426c-13.784,0-25,11.217-25,25.001s11.216,25,25,25s25-11.216,25-25S84.782,426,70.998,426 z M70.998,456.001c-2.759,0-5-2.246-5-5c0-2.759,2.241-5,5-5c2.754,0,5,2.241,5,5C75.998,453.755,73.752,456.001,70.998,456.001z"/><path d="M436,416c-16.543,0-30,13.457-30,30.001c0,16.543,13.457,30,30,30s30-13.457,30-30 C466,429.457,452.543,416,436,416z M436,456.001c-5.513,0-10-4.487-10-10S430.487,436,436,436s10,4.488,10,10.001 S441.513,456.001,436,456.001z"/><path d="M55.998,45.999H446c5.522,0,10-4.478,10-10s-4.478-10-10-10H55.998c-5.522,0-10,4.478-10,10 S50.476,45.999,55.998,45.999z"/><path d="M225.999,446.001c0,5.522,4.478,10,10,10h40c5.522,0,10-4.478,10-10 c0-5.521-4.478-10.001-10-10.001h-40C230.477,436,225.999,440.479,225.999,446.001z"/></g></g></svg>